Dauphine-v51.ufo
<glyph name="quotesingle" format="1">
  <advance width="249"/>
  <unicode hex="0027"/>
  <outline>
    <contour>
      <point x="124" y="484" type="line"/>
      <point x="62" y="484" type="line"/>
      <point x="135" y="705" type="line"/>
      <point x="197" y="705" type="line"/>
    </contour>
  </outline>
</glyph>
<glyph name="plus" format="1">
  <advance width="485"/>
  <unicode hex="002B"/>
  <outline>
    <contour>
      <point x="275" y="70" type="line"/>
      <point x="210" y="70" type="line"/>
      <point x="210" y="495" type="line"/>
      <point x="275" y="495" type="line"/>
    </contour>
    <contour>
      <point x="435" y="313" type="line"/>
      <point x="435" y="252" type="line"/>
      <point x="50" y="252" type="line"/>
      <point x="50" y="313" type="line"/>
    </contour>
  </outline>
</glyph>
<glyph name="hyphen" format="1">
  <advance width="320"/>
  <unicode hex="002D"/>
  <outline>
    <contour>
      <point x="300" y="227" type="line"/>
      <point x="20" y="227" type="line"/>
      <point x="20" y="297" type="line"/>
      <point x="300" y="297" type="line"/>
    </contour>
  </outline>
</glyph>
<glyph name="period" format="1">
  <advance width="178"/>
  <unicode hex="002E"/>
  <outline>
    <contour>
      <point x="130" y="0" type="line"/>
      <point x="48" y="0" type="line"/>
      <point x="48" y="80" type="line"/>
      <point x="130" y="80" type="line"/>
    </contour>
  </outline>
</glyph>
<glyph name="zero" format="1">
  <advance width="530"/>
  <unicode hex="0030"/>
  <outline>
    <contour>
      <point x="115" y="352" type="curve"/>
      <point x="115" y="190"/>
      <point x="182" y="55"/>
      <point x="265" y="55" type="curve" smooth="yes"/>
      <point x="348" y="55"/>
      <point x="415" y="190"/>
      <point x="415" y="352" type="curve" smooth="yes"/>
      <point x="415" y="514"/>
      <point x="348" y="650"/>
      <point x="265" y="650" type="curve" smooth="yes"/>
      <point x="182" y="650"/>
      <point x="115" y="514"/>
    </contour>
    <contour>
      <point x="40" y="352" type="curve" smooth="yes"/>
      <point x="40" y="562"/>
      <point x="144" y="715"/>
      <point x="265" y="715" type="curve" smooth="yes"/>
      <point x="386" y="715"/>
      <point x="490" y="562"/>
      <point x="490" y="352" type="curve" smooth="yes"/>
      <point x="490" y="142"/>
      <point x="386" y="-10"/>
      <point x="265" y="-10" type="curve" smooth="yes"/>
      <point x="144" y="-10"/>
      <point x="40" y="142"/>
    </contour>
  </outline>
</glyph>
<glyph name="one" format="1">
  <advance width="389"/>
  <unicode hex="0031"/>
  <outline>
    <contour>
      <point x="289" y="0" type="line"/>
      <point x="219" y="0" type="line"/>
      <point x="219" y="705" type="line"/>
      <point x="289" y="705" type="line"/>
    </contour>
    <contour>
      <point x="254" y="704" type="line"/>
      <point x="254" y="594"/>
      <point x="198" y="510"/>
      <point x="88" y="510" type="curve" smooth="yes"/>
      <point x="80" y="510" type="line"/>
      <point x="80" y="570" type="line"/>
      <point x="90" y="570" type="line" smooth="yes"/>
      <point x="160" y="570"/>
      <point x="219" y="634"/>
      <point x="219" y="704" type="curve"/>
    </contour>
  </outline>
</glyph>
<glyph name="three" format="1">
  <advance width="517"/>
  <unicode hex="0033"/>
  <outline>
    <contour>
      <point x="54" y="208" type="line"/>
      <point x="54" y="204" type="line" smooth="yes"/>
      <point x="54" y="84"/>
      <point x="138" y="-10"/>
      <point x="258" y="-10" type="curve" smooth="yes"/>
      <point x="378" y="-10"/>
      <point x="462" y="84"/>
      <point x="462" y="204" type="curve" smooth="yes"/>
      <point x="462" y="324"/>
      <point x="378" y="398"/>
      <point x="258" y="398" type="curve"/>
      <point x="258" y="347" type="line"/>
      <point x="349" y="347"/>
      <point x="438" y="426"/>
      <point x="438" y="526" type="curve" smooth="yes"/>
      <point x="438" y="631"/>
      <point x="363" y="715"/>
      <point x="258" y="715" type="curve" smooth="yes"/>
      <point x="153" y="715"/>
      <point x="78" y="631"/>
      <point x="78" y="526" type="curve"/>
      <point x="152" y="526" type="line"/>
      <point x="152" y="596"/>
      <point x="188" y="650"/>
      <point x="258" y="650" type="curve" smooth="yes"/>
      <point x="328" y="650"/>
      <point x="364" y="596"/>
      <point x="364" y="526" type="curve" smooth="yes"/>
      <point x="364" y="456"/>
      <point x="318" y="409"/>
      <point x="258" y="409" type="curve" smooth="yes"/>
      <point x="220" y="409" type="line"/>
      <point x="220" y="339" type="line"/>
      <point x="258" y="339" type="line" smooth="yes"/>
      <point x="333" y="339"/>
      <point x="387" y="283"/>
      <point x="387" y="208" type="curve" smooth="yes"/>
      <point x="387" y="128"/>
      <point x="338" y="55"/>
      <point x="258" y="55" type="curve" smooth="yes"/>
      <point x="178" y="55"/>
      <point x="129" y="128"/>
      <point x="129" y="208" type="curve"/>
    </contour>
  </outline>
</glyph>
<glyph name="four" format="1">
  <advance width="535"/>
  <unicode hex="0034"/>
  <outline>
    <contour>
      <point x="475" y="174" type="line"/>
      <point x="60" y="174" type="line"/>
      <point x="60" y="244" type="line"/>
      <point x="300" y="705" type="line"/>
      <point x="377" y="705" type="line"/>
      <point x="114" y="204" type="line"/>
      <point x="112" y="239" type="line"/>
      <point x="475" y="239" type="line"/>
    </contour>
    <contour>
      <point x="370" y="0" type="line"/>
      <point x="300" y="0" type="line"/>
      <point x="300" y="409" type="line"/>
      <point x="370" y="474" type="line"/>
    </contour>
  </outline>
</glyph>
<glyph name="five" format="1">
  <advance width="519"/>
  <unicode hex="0035"/>
  <outline>
    <contour>
      <point x="259" y="392" type="curve" smooth="yes"/>
      <point x="339" y="392"/>
      <point x="389" y="312"/>
      <point x="389" y="222" type="curve" smooth="yes"/>
      <point x="389" y="132"/>
      <point x="339" y="55"/>
      <point x="259" y="55" type="curve" smooth="yes"/>
      <point x="179" y="55"/>
      <point x="130" y="128"/>
      <point x="130" y="208" type="curve"/>
      <point x="55" y="208" type="line"/>
      <point x="55" y="204" type="line" smooth="yes"/>
      <point x="55" y="84"/>
      <point x="139" y="-10"/>
      <point x="259" y="-10" type="curve" smooth="yes"/>
      <point x="379" y="-10"/>
      <point x="464" y="83"/>
      <point x="464" y="223" type="curve" smooth="yes"/>
      <point x="464" y="363"/>
      <point x="379" y="457"/>
      <point x="259" y="457" type="curve" smooth="yes"/>
      <point x="201" y="457"/>
      <point x="155" y="427"/>
      <point x="122" y="386" type="curve"/>
      <point x="161" y="387" type="line"/>
      <point x="161" y="655" type="line"/>
      <point x="144" y="640" type="line"/>
      <point x="409" y="640" type="line"/>
      <point x="409" y="705" type="line"/>
      <point x="91" y="705" type="line"/>
      <point x="91" y="349" type="line"/>
      <point x="170" y="349" type="line"/>
      <point x="192" y="376"/>
      <point x="222" y="392"/>
    </contour>
  </outline>
</glyph>
<glyph name="less" format="1">
  <advance width="450"/>
  <unicode hex="003C"/>
  <outline>
    <contour>
      <point x="67" y="296" type="line"/>
      <point x="400" y="496" type="line"/>
      <point x="400" y="568" type="line"/>
      <point x="40" y="352" type="line"/>
      <point x="40" y="280" type="line"/>
      <point x="400" y="63" type="line"/>
      <point x="400" y="135" type="line"/>
      <point x="67" y="336" type="line"/>
    </contour>
  </outline>
</glyph>
<glyph name="equal" format="1">
  <advance width="438"/>
  <unicode hex="003D"/>
  <outline>
    <contour>
      <point x="50" y="237" type="line"/>
      <point x="50" y="177" type="line"/>
      <point x="388" y="177" type="line"/>
      <point x="388" y="237" type="line"/>
    </contour>
    <contour>
      <point x="50" y="377" type="line"/>
      <point x="50" y="317" type="line"/>
      <point x="388" y="317" type="line"/>
      <point x="388" y="377" type="line"/>
    </contour>
  </outline>
</glyph>
<glyph name="question" format="1">
  <advance width="492"/>
  <unicode hex="003F"/>
  <outline>
    <contour>
      <point x="279" y="150" type="line"/>
      <point x="207" y="150" type="line"/>
      <point x="207" y="210" type="line" smooth="yes"/>
      <point x="207" y="254"/>
      <point x="225" y="295"/>
      <point x="250" y="327" type="curve" smooth="yes"/>
      <point x="348" y="452" type="line" smooth="yes"/>
      <point x="363" y="471"/>
      <point x="368" y="495"/>
      <point x="368" y="521" type="curve" smooth="yes"/>
      <point x="368" y="591"/>
      <point x="314" y="650"/>
      <point x="244" y="650" type="curve" smooth="yes"/>
      <point x="174" y="650"/>
      <point x="120" y="591"/>
      <point x="120" y="521" type="curve" smooth="yes"/>
      <point x="120" y="501" type="line"/>
      <point x="50" y="501" type="line"/>
      <point x="50" y="519" type="line" smooth="yes"/>
      <point x="50" y="629"/>
      <point x="134" y="715"/>
      <point x="244" y="715" type="curve" smooth="yes"/>
      <point x="354" y="715"/>
      <point x="442" y="629"/>
      <point x="442" y="519" type="curve" smooth="yes"/>
      <point x="442" y="475"/>
      <point x="423" y="434"/>
      <point x="398" y="402" type="curve" smooth="yes"/>
      <point x="300" y="279" type="line" smooth="yes"/>
      <point x="285" y="260"/>
      <point x="279" y="236"/>
      <point x="279" y="210" type="curve" smooth="yes"/>
    </contour>
    <contour>
      <point x="282" y="0" type="line"/>
      <point x="204" y="0" type="line"/>
      <point x="204" y="78" type="line"/>
      <point x="282" y="78" type="line"/>
    </contour>
  </outline>
</glyph>
<glyph name="at" format="1">
  <advance width="897"/>
  <unicode hex="0040"/>
  <outline>
    <contour>
      <point x="611" y="22" type="line"/>
      <point x="563" y="-6"/>
      <point x="509" y="-18"/>
      <point x="448" y="-18" type="curve" smooth="yes"/>
      <point x="258" y="-18"/>
      <point x="119" y="126"/>
      <point x="119" y="316" type="curve" smooth="yes"/>
      <point x="119" y="506"/>
      <point x="258" y="651"/>
      <point x="448" y="651" type="curve" smooth="yes"/>
      <point x="637" y="651"/>
      <point x="770" y="505"/>
      <point x="770" y="316" type="curve"/>
      <point x="770" y="206"/>
      <point x="738" y="145"/>
      <point x="668" y="145" type="curve" smooth="yes"/>
      <point x="638" y="145"/>
      <point x="604" y="170"/>
      <point x="604" y="220" type="curve" smooth="yes"/>
      <point x="604" y="514" type="line"/>
      <point x="539" y="514" type="line"/>
      <point x="539" y="225" type="line" smooth="yes"/>
      <point x="539" y="155"/>
      <point x="589" y="88"/>
      <point x="668" y="88" type="curve" smooth="yes"/>
      <point x="778" y="88"/>
      <point x="837" y="186"/>
      <point x="837" y="316" type="curve" smooth="yes"/>
      <point x="837" y="536"/>
      <point x="668" y="715"/>
      <point x="448" y="715" type="curve" smooth="yes"/>
      <point x="228" y="715"/>
      <point x="50" y="536"/>
      <point x="50" y="316" type="curve" smooth="yes"/>
      <point x="50" y="96"/>
      <point x="228" y="-82"/>
      <point x="448" y="-82" type="curve" smooth="yes"/>
      <point x="519" y="-82"/>
      <point x="585" y="-63"/>
      <point x="641" y="-31" type="curve"/>
    </contour>
    <contour>
      <point x="429" y="95" type="curve" smooth="yes"/>
      <point x="539" y="95"/>
      <point x="582" y="209"/>
      <point x="582" y="309" type="curve" smooth="yes"/>
      <point x="582" y="409"/>
      <point x="539" y="524"/>
      <point x="429" y="524" type="curve" smooth="yes"/>
      <point x="319" y="524"/>
      <point x="250" y="419"/>
      <point x="250" y="309" type="curve" smooth="yes"/>
      <point x="250" y="199"/>
      <point x="319" y="95"/>
    </contour>
    <contour>
      <point x="429" y="462" type="curve" smooth="yes"/>
      <point x="499" y="462"/>
      <point x="539" y="389"/>
      <point x="539" y="309" type="curve" smooth="yes"/>
      <point x="539" y="229"/>
      <point x="499" y="157"/>
      <point x="429" y="157" type="curve" smooth="yes"/>
      <point x="359" y="157"/>
      <point x="320" y="229"/>
      <point x="320" y="309" type="curve" smooth="yes"/>
      <point x="320" y="389"/>
      <point x="359" y="462"/>
    </contour>
  </outline>
</glyph>
<glyph name="D" format="1">
  <advance width="601"/>
  <unicode hex="0044"/>
  <outline>
    <contour>
      <point x="282" y="640" type="line"/>
      <point x="422" y="640"/>
      <point x="486" y="491"/>
      <point x="486" y="351" type="curve" smooth="yes"/>
      <point x="486" y="221"/>
      <point x="412" y="65"/>
      <point x="282" y="65" type="curve" smooth="yes"/>
      <point x="123" y="65" type="line"/>
      <point x="135" y="56" type="line"/>
      <point x="135" y="650" type="line"/>
      <point x="123" y="640" type="line"/>
    </contour>
    <contour>
      <point x="65" y="705" type="line"/>
      <point x="65" y="0" type="line"/>
      <point x="292" y="0" type="line" smooth="yes"/>
      <point x="462" y="0"/>
      <point x="561" y="182"/>
      <point x="561" y="352" type="curve" smooth="yes"/>
      <point x="561" y="522"/>
      <point x="467" y="705"/>
      <point x="292" y="705" type="curve" smooth="yes"/>
    </contour>
  </outline>
</glyph>
<glyph name="F" format="1">
  <advance width="465"/>
  <unicode hex="0046"/>
  <outline>
    <contour>
      <point x="345" y="319" type="line"/>
      <point x="106" y="319" type="line"/>
      <point x="106" y="385" type="line"/>
      <point x="345" y="385" type="line"/>
    </contour>
    <component base="L" yScale="-1.0" yOffset="705"/>
  </outline>
</glyph>
<glyph name="G" format="1">
  <advance width="634"/>
  <unicode hex="0047"/>
  <outline>
    <contour>
      <point x="589" y="312" type="line"/>
      <point x="577" y="152"/>
      <point x="483" y="-10"/>
      <point x="316" y="-10" type="curve" smooth="yes"/>
      <point x="136" y="-10"/>
      <point x="40" y="172"/>
      <point x="40" y="352" type="curve" smooth="yes"/>
      <point x="40" y="532"/>
      <point x="136" y="715"/>
      <point x="316" y="715" type="curve" smooth="yes"/>
      <point x="448" y="715"/>
      <point x="533" y="618"/>
      <point x="570" y="495" type="curve"/>
      <point x="492" y="495" type="line"/>
      <point x="464" y="574"/>
      <point x="408" y="650"/>
      <point x="316" y="650" type="curve" smooth="yes"/>
      <point x="181" y="650"/>
      <point x="115" y="487"/>
      <point x="115" y="352" type="curve" smooth="yes"/>
      <point x="115" y="217"/>
      <point x="181" y="55"/>
      <point x="316" y="55" type="curve" smooth="yes"/>
      <point x="429" y="55"/>
      <point x="498" y="169"/>
      <point x="515" y="286" type="curve"/>
      <point x="541" y="247" type="line"/>
      <point x="316" y="247" type="line"/>
      <point x="316" y="312" type="line"/>
    </contour>
  </outline>
</glyph>
<glyph name="J" format="1">
  <advance width="473"/>
  <unicode hex="004A"/>
  <outline>
    <contour>
      <point x="423" y="705" type="line"/>
      <point x="423" y="202" type="line" smooth="yes"/>
      <point x="423" y="82"/>
      <point x="349" y="-10"/>
      <point x="229" y="-10" type="curve" smooth="yes"/>
      <point x="109" y="-10"/>
      <point x="35" y="92"/>
      <point x="35" y="202" type="curve" smooth="yes"/>
      <point x="35" y="212" type="line"/>
      <point x="105" y="212" type="line"/>
      <point x="105" y="202" type="line" smooth="yes"/>
      <point x="105" y="122"/>
      <point x="149" y="55"/>
      <point x="229" y="55" type="curve" smooth="yes"/>
      <point x="309" y="55"/>
      <point x="353" y="122"/>
      <point x="353" y="202" type="curve" smooth="yes"/>
      <point x="353" y="705" type="line"/>
    </contour>
  </outline>
</glyph>
<glyph name="K" format="1">
  <advance width="483"/>
  <unicode hex="004B"/>
  <outline>
    <contour>
      <point x="120" y="266" type="line"/>
      <point x="120" y="369" type="line"/>
      <point x="393" y="705" type="line"/>
      <point x="473" y="705" type="line"/>
    </contour>
    <contour>
      <point x="473" y="0" type="line"/>
      <point x="383" y="0" type="line"/>
      <point x="132" y="349" type="line"/>
      <point x="192" y="387" type="line"/>
    </contour>
    <contour>
      <point x="135" y="0" type="line"/>
      <point x="65" y="0" type="line"/>
      <point x="65" y="705" type="line"/>
      <point x="135" y="705" type="line"/>
    </contour>
  </outline>
</glyph>
<glyph name="M" format="1">
  <advance width="690"/>
  <unicode hex="004D"/>
  <outline>
    <contour>
      <point x="327" y="65" type="line"/>
      <point x="363" y="65" type="line"/>
      <point x="170" y="705" type="line"/>
      <point x="65" y="705" type="line"/>
      <point x="65" y="0" type="line"/>
      <point x="133" y="0" type="line"/>
      <point x="133" y="640" type="line"/>
      <point x="117" y="640" type="line"/>
      <point x="315" y="0" type="line"/>
      <point x="375" y="0" type="line"/>
      <point x="573" y="640" type="line"/>
      <point x="557" y="640" type="line"/>
      <point x="557" y="0" type="line"/>
      <point x="625" y="0" type="line"/>
      <point x="625" y="705" type="line"/>
      <point x="520" y="705" type="line"/>
    </contour>
  </outline>
</glyph>
<glyph name="N" format="1">
  <advance width="580"/>
  <unicode hex="004E"/>
  <outline>
    <contour>
      <point x="447" y="705" type="line"/>
      <point x="515" y="705" type="line"/>
      <point x="515" y="0" type="line"/>
      <point x="425" y="0" type="line"/>
      <point x="107" y="640" type="line"/>
      <point x="133" y="640" type="line"/>
      <point x="133" y="0" type="line"/>
      <point x="65" y="0" type="line"/>
      <point x="65" y="705" type="line"/>
      <point x="155" y="705" type="line"/>
      <point x="473" y="65" type="line"/>
      <point x="447" y="65" type="line"/>
    </contour>
  </outline>
</glyph>
<glyph name="P" format="1">
  <advance width="532"/>
  <unicode hex="0050"/>
  <outline>
    <contour>
      <point x="135" y="656" type="line"/>
      <point x="135" y="0" type="line"/>
      <point x="65" y="0" type="line"/>
      <point x="65" y="705" type="line"/>
      <point x="292" y="705" type="line" smooth="yes"/>
      <point x="402" y="705"/>
      <point x="507" y="631"/>
      <point x="507" y="511" type="curve" smooth="yes"/>
      <point x="507" y="391"/>
      <point x="402" y="317"/>
      <point x="292" y="317" type="curve" smooth="yes"/>
      <point x="98" y="317" type="line"/>
      <point x="98" y="382" type="line"/>
      <point x="292" y="382" type="line" smooth="yes"/>
      <point x="372" y="382"/>
      <point x="432" y="431"/>
      <point x="432" y="511" type="curve" smooth="yes"/>
      <point x="432" y="591"/>
      <point x="372" y="640"/>
      <point x="292" y="640" type="curve" smooth="yes"/>
      <point x="97" y="640" type="line"/>
    </contour>
  </outline>
</glyph>
<glyph name="U" format="1">
  <advance width="530"/>
  <unicode hex="0055"/>
  <outline>
    <contour>
      <point x="485" y="210" type="line"/>
      <point x="485" y="80"/>
      <point x="385" y="-10"/>
      <point x="265" y="-10" type="curve" smooth="yes"/>
      <point x="145" y="-10"/>
      <point x="45" y="80"/>
      <point x="45" y="210" type="curve" smooth="yes"/>
      <point x="45" y="705" type="line"/>
      <point x="115" y="705" type="line"/>
      <point x="115" y="210" type="line" smooth="yes"/>
      <point x="115" y="125"/>
      <point x="180" y="55"/>
      <point x="265" y="55" type="curve" smooth="yes"/>
      <point x="350" y="55"/>
      <point x="415" y="125"/>
      <point x="415" y="210" type="curve" smooth="yes"/>
      <point x="415" y="705" type="line"/>
      <point x="485" y="705" type="line"/>
    </contour>
  </outline>
</glyph>
<glyph name="W" format="1">
  <advance width="922"/>
  <unicode hex="0057"/>
  <outline>
    <contour>
      <point x="446" y="635" type="line"/>
      <point x="629" y="0" type="line"/>
      <point x="709" y="0" type="line"/>
      <point x="892" y="705" type="line"/>
      <point x="820" y="705" type="line"/>
      <point x="657" y="68" type="line"/>
      <point x="674" y="68" type="line"/>
      <point x="496" y="705" type="line"/>
      <point x="426" y="705" type="line"/>
      <point x="248" y="68" type="line"/>
      <point x="265" y="68" type="line"/>
      <point x="102" y="705" type="line"/>
      <point x="30" y="705" type="line"/>
      <point x="213" y="0" type="line"/>
      <point x="293" y="0" type="line"/>
      <point x="476" y="635" type="line"/>
    </contour>
  </outline>
</glyph>
<glyph name="Y" format="1">
  <advance width="536"/>
  <unicode hex="0059"/>
  <outline>
    <contour>
      <point x="304" y="0" type="line"/>
      <point x="231" y="0" type="line"/>
      <point x="231" y="327" type="line"/>
      <point x="304" y="327" type="line"/>
    </contour>
    <contour>
      <point x="443" y="705" type="line"/>
      <point x="524" y="705" type="line"/>
      <point x="267" y="250" type="line"/>
      <point x="10" y="705" type="line"/>
      <point x="91" y="705" type="line"/>
      <point x="279" y="359" type="line"/>
      <point x="255" y="359" type="line"/>
    </contour>
  </outline>
</glyph>
<glyph name="Z" format="1">
  <advance width="548"/>
  <unicode hex="005A"/>
  <outline>
    <contour>
      <point x="40" y="0" type="line"/>
      <point x="40" y="70" type="line"/>
      <point x="432" y="655" type="line"/>
      <point x="443" y="640" type="line"/>
      <point x="79" y="640" type="line"/>
      <point x="79" y="705" type="line"/>
      <point x="508" y="705" type="line"/>
      <point x="508" y="635" type="line"/>
      <point x="115" y="57" type="line"/>
      <point x="95" y="65" type="line"/>
      <point x="508" y="65" type="line"/>
      <point x="508" y="0" type="line"/>
    </contour>
  </outline>
</glyph>
<glyph name="asciicircum" format="1">
  <advance width="605"/>
  <unicode hex="005E"/>
  <outline>
    <contour>
      <point x="327" y="468" type="line"/>
      <point x="127" y="135" type="line"/>
      <point x="50" y="135" type="line"/>
      <point x="266" y="495" type="line"/>
      <point x="338" y="495" type="line"/>
      <point x="555" y="135" type="line"/>
      <point x="478" y="135" type="line"/>
      <point x="277" y="468" type="line"/>
    </contour>
  </outline>
</glyph>
<glyph name="n" format="1">
  <advance width="420"/>
  <unicode hex="006E"/>
  <outline>
    <contour>
      <point x="125" y="0" type="line"/>
      <point x="60" y="0" type="line"/>
      <point x="60" y="409" type="line"/>
      <point x="125" y="409" type="line"/>
    </contour>
    <contour>
      <point x="90" y="238" type="line"/>
      <point x="90" y="338"/>
      <point x="140" y="419"/>
      <point x="225" y="419" type="curve" smooth="yes"/>
      <point x="315" y="419"/>
      <point x="370" y="363"/>
      <point x="370" y="273" type="curve" smooth="yes"/>
      <point x="370" y="0" type="line"/>
      <point x="305" y="0" type="line"/>
      <point x="305" y="258" type="line" smooth="yes"/>
      <point x="305" y="318"/>
      <point x="280" y="359"/>
      <point x="220" y="359" type="curve" smooth="yes"/>
      <point x="160" y="359"/>
      <point x="125" y="298"/>
      <point x="125" y="238" type="curve"/>
    </contour>
  </outline>
</glyph>
<glyph name="q" format="1">
  <advance width="452"/>
  <unicode hex="0071"/>
  <outline>
    <contour>
      <point x="392" y="409" type="line"/>
      <point x="327" y="409" type="line"/>
      <point x="327" y="-295" type="line"/>
      <point x="392" y="-295" type="line"/>
    </contour>
    <component base="b.alt" xScale="-1.0" xOffset="426"/>
  </outline>
</glyph>
<glyph name="r" format="1">
  <advance width="340"/>
  <unicode hex="0072"/>
  <outline>
    <contour>
      <point x="125" y="0" type="line"/>
      <point x="60" y="0" type="line"/>
      <point x="60" y="409" type="line"/>
      <point x="125" y="409" type="line"/>
    </contour>
    <contour>
      <point x="100" y="284" type="line"/>
      <point x="100" y="354"/>
      <point x="140" y="419"/>
      <point x="210" y="419" type="curve" smooth="yes"/>
      <point x="275" y="419"/>
      <point x="320" y="369"/>
      <point x="320" y="294" type="curve" smooth="yes"/>
      <point x="320" y="278" type="line"/>
      <point x="255" y="278" type="line"/>
      <point x="255" y="288" type="line" smooth="yes"/>
      <point x="255" y="333"/>
      <point x="235" y="359"/>
      <point x="200" y="359" type="curve" smooth="yes"/>
      <point x="140" y="359"/>
      <point x="125" y="299"/>
      <point x="125" y="259" type="curve"/>
    </contour>
  </outline>
</glyph>
<glyph name="s" format="1">
  <advance width="382"/>
  <unicode hex="0073"/>
  <outline>
    <contour>
      <point x="194" y="-10" type="curve" smooth="yes"/>
      <point x="110" y="-10"/>
      <point x="40" y="43"/>
      <point x="40" y="127" type="curve" smooth="yes"/>
      <point x="40" y="130" type="line"/>
      <point x="105" y="130" type="line"/>
      <point x="105" y="127" type="line" smooth="yes"/>
      <point x="105" y="77"/>
      <point x="149" y="48"/>
      <point x="194" y="48" type="curve" smooth="yes"/>
      <point x="239" y="48"/>
      <point x="284" y="71"/>
      <point x="284" y="116" type="curve" smooth="yes"/>
      <point x="284" y="196"/>
      <point x="46" y="149"/>
      <point x="46" y="299" type="curve" smooth="yes"/>
      <point x="46" y="379"/>
      <point x="114" y="419"/>
      <point x="194" y="419" type="curve" smooth="yes"/>
      <point x="274" y="419"/>
      <point x="336" y="367"/>
      <point x="342" y="290" type="curve"/>
      <point x="276" y="290" type="line"/>
      <point x="269" y="326"/>
      <point x="244" y="361"/>
      <point x="194" y="361" type="curve" smooth="yes"/>
      <point x="144" y="361"/>
      <point x="113" y="339"/>
      <point x="113" y="299" type="curve" smooth="yes"/>
      <point x="113" y="219"/>
      <point x="351" y="266"/>
      <point x="351" y="116" type="curve" smooth="yes"/>
      <point x="351" y="32"/>
      <point x="278" y="-10"/>
    </contour>
  </outline>
</glyph>
<glyph name="x" format="1">
  <advance width="407"/>
  <unicode hex="0078"/>
  <outline>
    <contour>
      <point x="94" y="0" type="line"/>
      <point x="20" y="0" type="line"/>
      <point x="303" y="409" type="line"/>
      <point x="378" y="409" type="line"/>
    </contour>
    <contour>
      <point x="28" y="409" type="line"/>
      <point x="103" y="409" type="line"/>
      <point x="387" y="0" type="line"/>
      <point x="313" y="0" type="line"/>
    </contour>
  </outline>
</glyph>
<glyph name="z" format="1">
  <advance width="370"/>
  <unicode hex="007A"/>
  <outline>
    <contour>
      <point x="40" y="0" type="line"/>
      <point x="40" y="62" type="line"/>
      <point x="294" y="380" type="line"/>
      <point x="312" y="347" type="line"/>
      <point x="50" y="347" type="line"/>
      <point x="50" y="409" type="line"/>
      <point x="350" y="409" type="line"/>
      <point x="350" y="347" type="line"/>
      <point x="96" y="34" type="line"/>
      <point x="73" y="62" type="line"/>
      <point x="350" y="62" type="line"/>
      <point x="350" y="0" type="line"/>
    </contour>
  </outline>
</glyph>
<glyph name="bar" format="1">
  <advance width="190"/>
  <unicode hex="007C"/>
  <outline>
    <contour>
      <point x="130" y="-70" type="line"/>
      <point x="60" y="-70" type="line"/>
      <point x="60" y="715" type="line"/>
      <point x="130" y="715" type="line"/>
    </contour>
  </outline>
</glyph>
<glyph name="cent" format="1">
  <advance width="420"/>
  <unicode hex="00A2"/>
  <outline>
    <contour>
      <point x="251" y="389" type="line"/>
      <point x="185" y="389" type="line"/>
      <point x="185" y="509" type="line"/>
      <point x="251" y="509" type="line"/>
    </contour>
    <contour>
      <point x="251" y="-100" type="line"/>
      <point x="185" y="-100" type="line"/>
      <point x="185" y="20" type="line"/>
      <point x="251" y="20" type="line"/>
    </contour>
    <component base="c"/>
  </outline>
</glyph>
<glyph name="macron" format="1">
  <advance width="355"/>
  <unicode hex="00AF"/>
  <outline>
    <contour>
      <point x="305" y="605" type="line"/>
      <point x="305" y="544" type="line"/>
      <point x="50" y="544" type="line"/>
      <point x="50" y="605" type="line"/>
    </contour>
  </outline>
</glyph>
<glyph name="degree" format="1">
  <advance width="335"/>
  <unicode hex="00B0"/>
  <outline>
    <contour>
      <point x="50" y="597" type="curve" smooth="yes"/>
      <point x="50" y="532"/>
      <point x="102" y="480"/>
      <point x="167" y="480" type="curve" smooth="yes"/>
      <point x="232" y="480"/>
      <point x="285" y="532"/>
      <point x="285" y="597" type="curve" smooth="yes"/>
      <point x="285" y="662"/>
      <point x="232" y="715"/>
      <point x="167" y="715" type="curve" smooth="yes"/>
      <point x="102" y="715"/>
      <point x="50" y="662"/>
    </contour>
    <contour>
      <point x="105" y="597" type="curve" smooth="yes"/>
      <point x="105" y="632"/>
      <point x="132" y="663"/>
      <point x="167" y="663" type="curve" smooth="yes"/>
      <point x="202" y="663"/>
      <point x="230" y="632"/>
      <point x="230" y="597" type="curve" smooth="yes"/>
      <point x="230" y="562"/>
      <point x="202" y="532"/>
      <point x="167" y="532" type="curve" smooth="yes"/>
      <point x="132" y="532"/>
      <point x="105" y="562"/>
    </contour>
  </outline>
</glyph>
<glyph name="ordmasculine" format="1">
  <advance width="435"/>
  <unicode hex="00BA"/>
  <outline>
    <contour>
      <point x="40" y="156" type="line"/>
      <point x="395" y="156" type="line"/>
      <point x="395" y="226" type="line"/>
      <point x="40" y="226" type="line"/>
    </contour>
    <component base="o" yOffset="296"/>
  </outline>
</glyph>
<glyph name="germandbls" format="1">
  <advance width="425"/>
  <unicode hex="00DF"/>
  <outline>
    <contour>
      <point x="207" y="399" type="line"/>
      <point x="314" y="399"/>
      <point x="365" y="456"/>
      <point x="365" y="546" type="curve" smooth="yes"/>
      <point x="365" y="636"/>
      <point x="302" y="715"/>
      <point x="202" y="715" type="curve" smooth="yes"/>
      <point x="102" y="715"/>
      <point x="50" y="627"/>
      <point x="50" y="537" type="curve" smooth="yes"/>
      <point x="50" y="0" type="line"/>
      <point x="115" y="0" type="line"/>
      <point x="115" y="539" type="line" smooth="yes"/>
      <point x="115" y="603"/>
      <point x="140" y="653"/>
      <point x="202" y="653" type="curve" smooth="yes"/>
      <point x="266" y="653"/>
      <point x="298" y="612"/>
      <point x="298" y="546" type="curve" smooth="yes"/>
      <point x="298" y="479"/>
      <point x="250" y="439"/>
      <point x="200" y="439" type="curve" smooth="yes"/>
      <point x="180" y="439" type="line"/>
      <point x="180" y="377" type="line"/>
      <point x="197" y="377" type="line" smooth="yes"/>
      <point x="277" y="377"/>
      <point x="317" y="294"/>
      <point x="317" y="214" type="curve" smooth="yes"/>
      <point x="317" y="134"/>
      <point x="277" y="52"/>
      <point x="207" y="52" type="curve"/>
      <point x="207" y="-10" type="line"/>
      <point x="317" y="-10"/>
      <point x="385" y="104"/>
      <point x="385" y="214" type="curve" smooth="yes"/>
      <point x="385" y="324"/>
      <point x="317" y="429"/>
      <point x="207" y="429" type="curve"/>
    </contour>
  </outline>
</glyph>
<glyph name="oslash" format="1">
  <advance width="435"/>
  <unicode hex="00F8"/>
  <outline>
    <contour>
      <point x="400" y="472" type="line"/>
      <point x="335" y="472" type="line"/>
      <point x="35" y="-63" type="line"/>
      <point x="100" y="-63" type="line"/>
    </contour>
    <component base="o"/>
  </outline>
</glyph>
<glyph name="Dcroat" format="1">
  <advance width="656"/>
  <unicode hex="0110"/>
  <outline>
    <contour>
      <point x="300" y="385" type="line"/>
      <point x="20" y="385" type="line"/>
      <point x="20" y="319" type="line"/>
      <point x="300" y="319" type="line"/>
    </contour>
    <component base="D" xOffset="55"/>
  </outline>
</glyph>
<glyph name="lslash" format="1">
  <advance width="245"/>
  <unicode hex="0142"/>
  <outline>
    <contour>
      <point x="225" y="402" type="line"/>
      <point x="149" y="331" type="line"/>
      <point x="95" y="293" type="line"/>
      <point x="20" y="227" type="line"/>
      <point x="20" y="307" type="line"/>
      <point x="95" y="373" type="line"/>
      <point x="149" y="411" type="line"/>
      <point x="225" y="482" type="line"/>
    </contour>
    <component base="l" xOffset="35"/>
  </outline>
</glyph>
<glyph name="OE" format="1">
  <advance width="800"/>
  <unicode hex="0152"/>
  <outline>
    <contour>
      <point x="397" y="74" type="line"/>
      <point x="374" y="59"/>
      <point x="347" y="55"/>
      <point x="316" y="55" type="curve" smooth="yes"/>
      <point x="181" y="55"/>
      <point x="115" y="217"/>
      <point x="115" y="352" type="curve" smooth="yes"/>
      <point x="115" y="487"/>
      <point x="181" y="650"/>
      <point x="316" y="650" type="curve" smooth="yes"/>
      <point x="347" y="650"/>
      <point x="374" y="646"/>
      <point x="397" y="631" type="curve"/>
      <point x="395" y="702" type="line"/>
      <point x="371" y="710"/>
      <point x="344" y="715"/>
      <point x="316" y="715" type="curve" smooth="yes"/>
      <point x="136" y="715"/>
      <point x="40" y="532"/>
      <point x="40" y="352" type="curve" smooth="yes"/>
      <point x="40" y="172"/>
      <point x="136" y="-10"/>
      <point x="316" y="-10" type="curve" smooth="yes"/>
      <point x="344" y="-10"/>
      <point x="371" y="-5"/>
      <point x="395" y="3" type="curve"/>
    </contour>
    <contour>
      <point x="770" y="65" type="line"/>
      <point x="443" y="65" type="line"/>
      <point x="455" y="56" type="line"/>
      <point x="455" y="650" type="line"/>
      <point x="443" y="640" type="line"/>
      <point x="770" y="640" type="line"/>
      <point x="770" y="705" type="line"/>
      <point x="385" y="705" type="line"/>
      <point x="385" y="0" type="line"/>
      <point x="770" y="0" type="line"/>
    </contour>
    <contour>
      <point x="665" y="385" type="line"/>
      <point x="426" y="385" type="line"/>
      <point x="426" y="319" type="line"/>
      <point x="665" y="319" type="line"/>
    </contour>
  </outline>
</glyph>
<glyph name="oe" format="1">
  <advance width="722"/>
  <unicode hex="0153"/>
  <outline>
    <contour>
      <point x="218" y="357" type="curve"/>
      <point x="148" y="357"/>
      <point x="108" y="284"/>
      <point x="108" y="204" type="curve" smooth="yes"/>
      <point x="108" y="124"/>
      <point x="148" y="52"/>
      <point x="218" y="52" type="curve" smooth="yes"/>
      <point x="288" y="52"/>
      <point x="327" y="124"/>
      <point x="327" y="204" type="curve" smooth="yes"/>
      <point x="327" y="284"/>
      <point x="288" y="357"/>
    </contour>
    <contour>
      <point x="218" y="-10" type="curve"/>
      <point x="108" y="-10"/>
      <point x="40" y="94"/>
      <point x="40" y="204" type="curve" smooth="yes"/>
      <point x="40" y="314"/>
      <point x="108" y="419"/>
      <point x="218" y="419" type="curve" smooth="yes"/>
      <point x="299" y="419"/>
      <point x="351" y="362"/>
      <point x="376" y="289" type="curve"/>
      <point x="376" y="117" type="line"/>
      <point x="351" y="45"/>
      <point x="298" y="-10"/>
    </contour>
    <contour>
      <point x="682" y="195" type="line"/>
      <point x="388" y="195" type="line"/>
      <point x="388" y="253" type="line"/>
      <point x="626" y="253" type="line"/>
      <point x="615" y="204" type="line"/>
      <point x="615" y="284"/>
      <point x="575" y="358"/>
      <point x="505" y="358" type="curve" smooth="yes"/>
      <point x="435" y="358"/>
      <point x="394" y="284"/>
      <point x="394" y="204" type="curve" smooth="yes"/>
      <point x="394" y="124"/>
      <point x="435" y="51"/>
      <point x="505" y="51" type="curve" smooth="yes"/>
      <point x="552" y="51"/>
      <point x="592" y="85"/>
      <point x="610" y="130" type="curve"/>
      <point x="678" y="130" type="line"/>
      <point x="655" y="51"/>
      <point x="590" y="-10"/>
      <point x="505" y="-10" type="curve" smooth="yes"/>
      <point x="426" y="-10"/>
      <point x="373" y="45"/>
      <point x="347" y="116" type="curve"/>
      <point x="347" y="289" type="line"/>
      <point x="372" y="363"/>
      <point x="424" y="419"/>
      <point x="505" y="419" type="curve" smooth="yes"/>
      <point x="615" y="419"/>
      <point x="682" y="314"/>
      <point x="682" y="204" type="curve" smooth="yes"/>
    </contour>
  </outline>
</glyph>
<glyph name="Rcaron" format="1">
  <advance width="552"/>
  <unicode hex="0158"/>
  <outline>
    <contour>
      <point x="261" y="326" type="line"/>
      <point x="341" y="326" type="line"/>
      <point x="517" y="0" type="line"/>
      <point x="437" y="0" type="line"/>
    </contour>
    <component base="caron.case" xOffset="103"/>
    <component base="P"/>
  </outline>
</glyph>
<glyph name="tilde" format="1">
  <advance width="375"/>
  <unicode hex="02DC"/>
  <outline>
    <contour>
      <point x="240" y="595" type="curve"/>
      <point x="208" y="595"/>
      <point x="178" y="630"/>
      <point x="134" y="630" type="curve" smooth="yes"/>
      <point x="100" y="630"/>
      <point x="70" y="608"/>
      <point x="50" y="584" type="curve"/>
      <point x="89" y="536" type="line"/>
      <point x="100" y="552"/>
      <point x="116" y="562"/>
      <point x="135" y="562" type="curve" smooth="yes"/>
      <point x="166" y="562"/>
      <point x="196" y="527"/>
      <point x="240" y="527" type="curve" smooth="yes"/>
      <point x="275" y="527"/>
      <point x="304" y="548"/>
      <point x="325" y="573" type="curve"/>
      <point x="286" y="621" type="line"/>
      <point x="275" y="605"/>
      <point x="259" y="595"/>
    </contour>
  </outline>
</glyph>
<glyph name="hungarumlaut" format="1">
  <advance width="331"/>
  <unicode hex="02DD"/>
  <outline>
    <contour>
      <point x="102" y="484" type="line"/>
      <point x="40" y="484" type="line"/>
      <point x="113" y="705" type="line"/>
      <point x="175" y="705" type="line"/>
    </contour>
    <contour>
      <point x="238" y="484" type="line"/>
      <point x="176" y="484" type="line"/>
      <point x="249" y="705" type="line"/>
      <point x="311" y="705" type="line"/>
    </contour>
  </outline>
</glyph>
<glyph name="endash" format="1">
  <advance width="500"/>
  <unicode hex="2013"/>
  <outline>
    <contour>
      <point x="490" y="247" type="line"/>
      <point x="10" y="247" type="line"/>
      <point x="10" y="317" type="line"/>
      <point x="490" y="317" type="line"/>
    </contour>
  </outline>
</glyph>
<glyph name="quoteleft" format="1">
  <advance width="229"/>
  <unicode hex="2018"/>
  <outline>
    <contour>
      <point x="114" y="484" type="line"/>
      <point x="52" y="484" type="line"/>
      <point x="125" y="705" type="line"/>
      <point x="187" y="705" type="line"/>
    </contour>
  </outline>
</glyph>
<glyph name="dagger" format="1">
  <advance width="418"/>
  <unicode hex="2020"/>
  <outline>
    <contour>
      <point x="378" y="494" type="line"/>
      <point x="378" y="434" type="line"/>
      <point x="40" y="434" type="line"/>
      <point x="40" y="494" type="line"/>
    </contour>
    <component base="bar" xOffset="114"/>
  </outline>
</glyph>
<glyph name="bullet" format="1">
  <advance width="589"/>
  <unicode hex="2022"/>
  <outline>
    <contour>
      <point x="101" y="334" type="curve" smooth="yes"/>
      <point x="101" y="227"/>
      <point x="187" y="141"/>
      <point x="294" y="141" type="curve" smooth="yes"/>
      <point x="401" y="141"/>
      <point x="488" y="227"/>
      <point x="488" y="334" type="curve" smooth="yes"/>
      <point x="488" y="441"/>
      <point x="401" y="528"/>
      <point x="294" y="528" type="curve" smooth="yes"/>
      <point x="187" y="528"/>
      <point x="101" y="441"/>
    </contour>
  </outline>
</glyph>
<glyph name="guilsinglleft" format="1">
  <advance width="300"/>
  <unicode hex="2039"/>
  <outline>
    <contour>
      <point x="50" y="342" type="line"/>
      <point x="250" y="198" type="line"/>
      <point x="250" y="126" type="line"/>
      <point x="50" y="270" type="line"/>
    </contour>
    <contour>
      <point x="50" y="270" type="line"/>
      <point x="50" y="342" type="line"/>
      <point x="250" y="487" type="line"/>
      <point x="250" y="415" type="line"/>
    </contour>
  </outline>
</glyph>
<glyph name="Euro" format="1">
  <advance width="571"/>
  <unicode hex="20AC"/>
  <outline>
    <contour>
      <point x="350" y="386" type="line"/>
      <point x="350" y="451" type="line"/>
      <point x="20" y="451" type="line"/>
      <point x="20" y="386" type="line"/>
    </contour>
    <contour>
      <point x="350" y="251" type="line"/>
      <point x="350" y="316" type="line"/>
      <point x="20" y="316" type="line"/>
      <point x="20" y="251" type="line"/>
    </contour>
    <contour>
      <point x="459" y="210" type="line"/>
      <point x="433" y="120"/>
      <point x="385" y="60"/>
      <point x="328" y="60" type="curve" smooth="yes"/>
      <point x="245" y="60"/>
      <point x="178" y="190"/>
      <point x="178" y="352" type="curve" smooth="yes"/>
      <point x="178" y="514"/>
      <point x="245" y="645"/>
      <point x="328" y="645" type="curve" smooth="yes"/>
      <point x="384" y="645"/>
      <point x="433" y="584"/>
      <point x="459" y="495" type="curve"/>
      <point x="531" y="495" type="line"/>
      <point x="498" y="628"/>
      <point x="419" y="715"/>
      <point x="328" y="715" type="curve" smooth="yes"/>
      <point x="207" y="715"/>
      <point x="108" y="562"/>
      <point x="108" y="352" type="curve" smooth="yes"/>
      <point x="108" y="142"/>
      <point x="207" y="-10"/>
      <point x="328" y="-10" type="curve" smooth="yes"/>
      <point x="420" y="-10"/>
      <point x="498" y="77"/>
      <point x="531" y="210" type="curve"/>
    </contour>
  </outline>
</glyph>
<glyph name="uni2196" format="1">
  <advance width="523"/>
  <unicode hex="2196"/>
  <outline>
    <contour>
      <point x="421" y="91" type="line"/>
      <point x="95" y="416" type="line"/>
      <point x="138" y="459" type="line"/>
      <point x="463" y="133" type="line"/>
    </contour>
    <contour>
      <point x="107" y="304" type="line"/>
      <point x="60" y="494" type="line"/>
      <point x="250" y="447" type="line"/>
    </contour>
  </outline>
</glyph>
<glyph name="filledbox" format="1">
  <advance width="765"/>
  <unicode hex="25A0"/>
  <outline>
    <contour>
      <point x="695" y="705" type="line"/>
      <point x="70" y="705" type="line"/>
      <point x="70" y="0" type="line"/>
      <point x="695" y="0" type="line"/>
    </contour>
  </outline>
</glyph>
<glyph name="acute.case" format="1">
  <advance width="208"/>
  <outline>
    <contour>
      <point x="118" y="740" type="line"/>
      <point x="57" y="740" type="line"/>
      <point x="100" y="865" type="line"/>
      <point x="161" y="865" type="line"/>
    </contour>
  </outline>
</glyph>
<glyph name="dotaccent.case" format="1">
  <advance width="218"/>
  <outline>
    <contour>
      <point x="148" y="752" type="line"/>
      <point x="70" y="752" type="line"/>
      <point x="70" y="830" type="line"/>
      <point x="148" y="830" type="line"/>
    </contour>
  </outline>
</glyph>
<glyph name="i.superior" format="1">
  <advance width="165"/>
  <outline>
    <contour>
      <point x="115" y="296" type="line"/>
      <point x="50" y="296" type="line"/>
      <point x="50" y="705" type="line"/>
      <point x="115" y="705" type="line"/>
    </contour>
    <contour>
      <point x="120" y="775" type="line"/>
      <point x="45" y="775" type="line"/>
      <point x="45" y="850" type="line"/>
      <point x="120" y="850" type="line"/>
    </contour>
  </outline>
</glyph>
<glyph name="l.superior" format="1">
  <advance width="165"/>
  <outline>
    <contour>
      <point x="115" y="296" type="line"/>
      <point x="50" y="296" type="line"/>
      <point x="50" y="850" type="line"/>
      <point x="115" y="850" type="line"/>
    </contour>
  </outline>
</glyph>
<glyph name="m.superior" format="1">
  <advance width="665"/>
  <outline>
    <contour>
      <point x="325" y="534" type="line"/>
      <point x="325" y="634"/>
      <point x="385" y="715"/>
      <point x="470" y="715" type="curve" smooth="yes"/>
      <point x="560" y="715"/>
      <point x="615" y="659"/>
      <point x="615" y="569" type="curve" smooth="yes"/>
      <point x="615" y="296" type="line"/>
      <point x="550" y="296" type="line"/>
      <point x="550" y="554" type="line" smooth="yes"/>
      <point x="550" y="614"/>
      <point x="525" y="655"/>
      <point x="465" y="655" type="curve" smooth="yes"/>
      <point x="405" y="655"/>
      <point x="370" y="594"/>
      <point x="370" y="534" type="curve"/>
    </contour>
    <component base="n" yOffset="296"/>
  </outline>
</glyph>
<glyph name="macron.case" format="1">
  <advance width="300"/>
  <outline>
    <contour>
      <point x="273" y="815" type="line"/>
      <point x="273" y="760" type="line"/>
      <point x="28" y="760" type="line"/>
      <point x="28" y="815" type="line"/>
    </contour>
  </outline>
</glyph>
<glyph name="ogonek.case" format="1">
  <advance width="274"/>
  <outline>
    <contour>
      <point x="56" y="-153" type="line"/>
      <point x="56" y="-43"/>
      <point x="124" y="32"/>
      <point x="234" y="32" type="curve"/>
      <point x="234" y="0" type="line"/>
      <point x="164" y="0"/>
      <point x="124" y="-73"/>
      <point x="124" y="-153" type="curve"/>
    </contour>
  </outline>
</glyph>
<glyph name="p.superior" format="1">
  <advance width="455"/>
  <outline>
    <contour>
      <point x="115" y="161" type="line"/>
      <point x="50" y="161" type="line"/>
      <point x="50" y="705" type="line"/>
      <point x="115" y="705" type="line"/>
    </contour>
    <component base="b.alt" xOffset="16" yOffset="296"/>
  </outline>
</glyph>
